# xmcd
#
# Track frame offsets:
#  150
#  12662
#  24343
#  40229
#  60272
#  72273
#  86730
#  96881
#  111436
#  123993
#  137212
#  151205
#  162179
#
# Disc length: 2362 seconds
#
# Revision: 0
# Processed by: cddbd v1.5.1PL2 Copyright (c) Steve Scherf et al.
# Submitted via: Collectorz.com_Music_Collector 6.9
#
DISCID=a809380d
DTITLE=James Alan Shelton - Song For Greta
DYEAR=2002
DGENRE=Bluegrass
TTITLE0=01 - North Fork of the Holston
TTITLE1=02 - Song For Greta
TTITLE2=03 - Fifty Miles of Elbow Room
TTITLE3=04 - Faded Love
TTITLE4=05 - The Sunset Trail
TTITLE5=06 - Scarborough Fair
TTITLE6=07 - Back Up and Push
TTITLE7=08 - Shady Grove
TTITLE8=09 - When You and I Were Young, Maggie
TTITLE9=10 - It Is Better Farther On
TTITLE10=11 - Down Yonder
TTITLE11=12 - Freight Train
TTITLE12=13 - Long Journey Home
EXTD=
EXTT0=
EXTT1=
EXTT2=
EXTT3=
EXTT4=
EXTT5=
EXTT6=
EXTT7=
EXTT8=
EXTT9=
EXTT10=
EXTT11=
EXTT12=
PLAYORDER=
